<mxfile host="app.diagrams.net" modified="2024-02-17T10:57:19.078Z" agent="Mozilla/5.0 (Windows NT 10.0; Win64; x64) AppleWebKit/537.36 (KHTML, like Gecko) Chrome/121.0.0.0 Safari/537.36" etag="GS8vQX1rDxUUjscG5pqQ" version="23.1.5" type="device">
  <diagram name="Pagina-1" id="hKOWC7ziICnI7cQu4GCL">
    <mxGraphModel dx="1562" dy="830" grid="1" gridSize="10" guides="1" tooltips="1" connect="1" arrows="1" fold="1" page="1" pageScale="1" pageWidth="827" pageHeight="1169" math="0" shadow="0">
      <root>
        <mxCell id="0" />
        <mxCell id="1" parent="0" />
        <mxCell id="PDlrf9YYpIG2hMAl2r1s-1" value="" style="rounded=0;whiteSpace=wrap;html=1;fillColor=#d5e8d4;strokeColor=#82b366;" vertex="1" parent="1">
          <mxGeometry x="294" y="40" width="230" height="370" as="geometry" />
        </mxCell>
        <mxCell id="PDlrf9YYpIG2hMAl2r1s-2" value="" style="rounded=1;whiteSpace=wrap;html=1;" vertex="1" parent="1">
          <mxGeometry x="317.5" y="160" width="183" height="130" as="geometry" />
        </mxCell>
        <mxCell id="PDlrf9YYpIG2hMAl2r1s-3" value="&lt;b&gt;LOGIN&lt;/b&gt;" style="text;html=1;strokeColor=none;fillColor=none;align=center;verticalAlign=middle;whiteSpace=wrap;rounded=0;" vertex="1" parent="1">
          <mxGeometry x="379" y="165" width="60" height="30" as="geometry" />
        </mxCell>
        <mxCell id="PDlrf9YYpIG2hMAl2r1s-4" value="Username" style="rounded=1;whiteSpace=wrap;html=1;" vertex="1" parent="1">
          <mxGeometry x="349" y="205" width="120" height="20" as="geometry" />
        </mxCell>
        <mxCell id="PDlrf9YYpIG2hMAl2r1s-5" value="Password" style="rounded=1;whiteSpace=wrap;html=1;" vertex="1" parent="1">
          <mxGeometry x="349" y="235" width="120" height="20" as="geometry" />
        </mxCell>
        <mxCell id="PDlrf9YYpIG2hMAl2r1s-6" value="Accedi" style="rounded=1;whiteSpace=wrap;html=1;" vertex="1" parent="1">
          <mxGeometry x="339" y="265" width="50" height="20" as="geometry" />
        </mxCell>
        <mxCell id="PDlrf9YYpIG2hMAl2r1s-7" value="Registrati" style="rounded=1;whiteSpace=wrap;html=1;" vertex="1" parent="1">
          <mxGeometry x="419" y="265" width="60" height="20" as="geometry" />
        </mxCell>
        <mxCell id="PDlrf9YYpIG2hMAl2r1s-8" value="&lt;font style=&quot;font-size: 16px;&quot;&gt;&lt;b&gt;MOBILE&lt;/b&gt;&lt;/font&gt;" style="text;html=1;strokeColor=none;fillColor=none;align=center;verticalAlign=middle;whiteSpace=wrap;rounded=0;" vertex="1" parent="1">
          <mxGeometry x="379" y="10" width="60" height="30" as="geometry" />
        </mxCell>
        <mxCell id="PDlrf9YYpIG2hMAl2r1s-9" value="" style="rounded=0;whiteSpace=wrap;html=1;fillColor=#d5e8d4;strokeColor=#82b366;" vertex="1" parent="1">
          <mxGeometry x="294" y="430" width="230" height="370" as="geometry" />
        </mxCell>
        <mxCell id="PDlrf9YYpIG2hMAl2r1s-10" value="&lt;font style=&quot;font-size: 13px;&quot;&gt;Titolo&lt;/font&gt;" style="text;html=1;strokeColor=none;fillColor=none;align=center;verticalAlign=middle;whiteSpace=wrap;rounded=0;" vertex="1" parent="1">
          <mxGeometry x="294" y="440" width="60" height="30" as="geometry" />
        </mxCell>
        <mxCell id="PDlrf9YYpIG2hMAl2r1s-11" value="&lt;font style=&quot;font-size: 13px;&quot;&gt;Logout&lt;/font&gt;" style="text;html=1;strokeColor=none;fillColor=none;align=center;verticalAlign=middle;whiteSpace=wrap;rounded=0;" vertex="1" parent="1">
          <mxGeometry x="454" y="440" width="60" height="30" as="geometry" />
        </mxCell>
        <mxCell id="PDlrf9YYpIG2hMAl2r1s-12" value="NOTA 1" style="rounded=1;whiteSpace=wrap;html=1;" vertex="1" parent="1">
          <mxGeometry x="361" y="495" width="100" height="80" as="geometry" />
        </mxCell>
        <mxCell id="PDlrf9YYpIG2hMAl2r1s-13" value="NOTA 2" style="rounded=1;whiteSpace=wrap;html=1;" vertex="1" parent="1">
          <mxGeometry x="361" y="590" width="100" height="80" as="geometry" />
        </mxCell>
        <mxCell id="PDlrf9YYpIG2hMAl2r1s-14" value="&lt;font style=&quot;font-size: 20px;&quot;&gt;+&lt;/font&gt;" style="rounded=1;whiteSpace=wrap;html=1;" vertex="1" parent="1">
          <mxGeometry x="361" y="690" width="100" height="80" as="geometry" />
        </mxCell>
        <mxCell id="PDlrf9YYpIG2hMAl2r1s-15" value="Testo" style="rounded=1;whiteSpace=wrap;html=1;" vertex="1" parent="1">
          <mxGeometry x="254" y="830" width="319.5" height="240" as="geometry" />
        </mxCell>
        <mxCell id="PDlrf9YYpIG2hMAl2r1s-16" value="" style="rounded=1;whiteSpace=wrap;html=1;fillColor=#dae8fc;strokeColor=#6c8ebf;" vertex="1" parent="1">
          <mxGeometry x="500" y="850" width="50" height="20" as="geometry" />
        </mxCell>
        <mxCell id="PDlrf9YYpIG2hMAl2r1s-17" value="" style="ellipse;whiteSpace=wrap;html=1;aspect=fixed;" vertex="1" parent="1">
          <mxGeometry x="530" y="850" width="20" height="20" as="geometry" />
        </mxCell>
        <mxCell id="PDlrf9YYpIG2hMAl2r1s-18" value="Titolo&amp;nbsp; &amp;nbsp; &amp;nbsp; &amp;nbsp; &amp;nbsp; &amp;nbsp; &amp;nbsp; &amp;nbsp; &amp;nbsp; &amp;nbsp; &amp;nbsp; &amp;nbsp; &amp;nbsp; &amp;nbsp; &amp;nbsp; &amp;nbsp; &amp;nbsp; &amp;nbsp; &amp;nbsp; &amp;nbsp; &amp;nbsp; &amp;nbsp;PrioritÃ " style="text;html=1;align=center;verticalAlign=middle;whiteSpace=wrap;rounded=0;" vertex="1" parent="1">
          <mxGeometry x="263" y="845" width="240" height="30" as="geometry" />
        </mxCell>
        <mxCell id="PDlrf9YYpIG2hMAl2r1s-19" value="DataCreazione/DataModifica" style="text;html=1;align=center;verticalAlign=middle;whiteSpace=wrap;rounded=0;" vertex="1" parent="1">
          <mxGeometry x="390" y="1040" width="60" height="30" as="geometry" />
        </mxCell>
        <mxCell id="PDlrf9YYpIG2hMAl2r1s-21" value="" style="html=1;verticalLabelPosition=bottom;align=center;labelBackgroundColor=#ffffff;verticalAlign=top;strokeWidth=2;strokeColor=#b85450;shadow=0;dashed=0;shape=mxgraph.ios7.icons.trashcan;fillColor=#f8cecc;" vertex="1" parent="1">
          <mxGeometry x="550" y="830" width="20" height="20" as="geometry" />
        </mxCell>
      </root>
    </mxGraphModel>
  </diagram>
</mxfile>
